<?xml version="1.0" encoding="UTF-8" standalone="no"?>
<!DOCTYPE svg PUBLIC "-//W3C//DTD SVG 1.1//EN"
 "http://www.w3.org/Graphics/SVG/1.1/DTD/svg11.dtd">
<!-- Generated by graphviz version 8.0.5 (20230506.1012)
 -->
<!-- Title: snakemake_dag Pages: 1 -->
<svg width="1016pt" height="1062pt"
 viewBox="0.00 0.00 1015.75 1062.25" xmlns="http://www.w3.org/2000/svg" xmlns:xlink="http://www.w3.org/1999/xlink">
<g id="graph0" class="graph" transform="scale(1 1) rotate(0) translate(4 1058.25)">
<title>snakemake_dag</title>
<polygon fill="white" stroke="none" points="-4,4 -4,-1058.25 1011.75,-1058.25 1011.75,4 -4,4"/>
<!-- 0 -->
<g id="node1" class="node">
<title>0</title>
<path fill="none" stroke="#d86656" stroke-width="2" d="M495,-36C495,-36 431,-36 431,-36 425,-36 419,-30 419,-24 419,-24 419,-12 419,-12 419,-6 425,0 431,0 431,0 495,0 495,0 501,0 507,-6 507,-12 507,-12 507,-24 507,-24 507,-30 501,-36 495,-36"/>
<text text-anchor="middle" x="463" y="-14.88" font-family="sans" font-size="10.00">BlastProteome</text>
</g>
<!-- 1 -->
<g id="node2" class="node">
<title>1</title>
<path fill="none" stroke="#5692d8" stroke-width="2" d="M531,-108C531,-108 395,-108 395,-108 389,-108 383,-102 383,-96 383,-96 383,-84 383,-84 383,-78 389,-72 395,-72 395,-72 531,-72 531,-72 537,-72 543,-78 543,-84 543,-84 543,-96 543,-96 543,-102 537,-108 531,-108"/>
<text text-anchor="middle" x="463" y="-86.88" font-family="sans" font-size="10.00">AdjustProteomeFastaHeaders</text>
</g>
<!-- 1&#45;&gt;0 -->
<g id="edge1" class="edge">
<title>1&#45;&gt;0</title>
<path fill="none" stroke="grey" stroke-width="2" d="M463,-71.34C463,-64.75 463,-57.08 463,-49.67"/>
<polygon fill="grey" stroke="grey" stroke-width="2" points="466.5,-49.9 463,-39.9 459.5,-49.9 466.5,-49.9"/>
</g>
<!-- 2 -->
<g id="node3" class="node">
<title>2</title>
<path fill="none" stroke="#56d89a" stroke-width="2" d="M585.38,-180C585.38,-180 340.62,-180 340.62,-180 334.62,-180 328.62,-174 328.62,-168 328.62,-168 328.62,-156 328.62,-156 328.62,-150 334.62,-144 340.62,-144 340.62,-144 585.38,-144 585.38,-144 591.38,-144 597.38,-150 597.38,-156 597.38,-156 597.38,-168 597.38,-168 597.38,-174 591.38,-180 585.38,-180"/>
<text text-anchor="middle" x="463" y="-158.88" font-family="sans" font-size="10.00">main_06_MergeAllProteomeTracksAndRemoveDups</text>
</g>
<!-- 2&#45;&gt;1 -->
<g id="edge2" class="edge">
<title>2&#45;&gt;1</title>
<path fill="none" stroke="grey" stroke-width="2" d="M463,-143.34C463,-136.75 463,-129.08 463,-121.67"/>
<polygon fill="grey" stroke="grey" stroke-width="2" points="466.5,-121.9 463,-111.9 459.5,-121.9 466.5,-121.9"/>
</g>
<!-- 3 -->
<g id="node4" class="node">
<title>3</title>
<path fill="none" stroke="#b6d856" stroke-width="2" d="M441.88,-252C441.88,-252 284.12,-252 284.12,-252 278.12,-252 272.12,-246 272.12,-240 272.12,-240 272.12,-228 272.12,-228 272.12,-222 278.12,-216 284.12,-216 284.12,-216 441.88,-216 441.88,-216 447.88,-216 453.88,-222 453.88,-228 453.88,-228 453.88,-240 453.88,-240 453.88,-246 447.88,-252 441.88,-252"/>
<text text-anchor="middle" x="363" y="-230.88" font-family="sans" font-size="10.00">main_05_ReadOutProteomeFASTA</text>
</g>
<!-- 3&#45;&gt;2 -->
<g id="edge3" class="edge">
<title>3&#45;&gt;2</title>
<path fill="none" stroke="grey" stroke-width="2" d="M388.49,-215.15C400.25,-206.93 414.4,-197.02 427.2,-188.06"/>
<polygon fill="grey" stroke="grey" stroke-width="2" points="429.37,-190.41 435.55,-181.81 425.35,-184.68 429.37,-190.41"/>
</g>
<!-- 4 -->
<g id="node5" class="node">
<title>4</title>
<path fill="none" stroke="#b6d856" stroke-width="2" d="M649.88,-252C649.88,-252 492.12,-252 492.12,-252 486.12,-252 480.12,-246 480.12,-240 480.12,-240 480.12,-228 480.12,-228 480.12,-222 486.12,-216 492.12,-216 492.12,-216 649.88,-216 649.88,-216 655.88,-216 661.88,-222 661.88,-228 661.88,-228 661.88,-240 661.88,-240 661.88,-246 655.88,-252 649.88,-252"/>
<text text-anchor="middle" x="571" y="-230.88" font-family="sans" font-size="10.00">main_05_ReadOutProteomeFASTA</text>
</g>
<!-- 4&#45;&gt;2 -->
<g id="edge4" class="edge">
<title>4&#45;&gt;2</title>
<path fill="none" stroke="grey" stroke-width="2" d="M543.47,-215.15C530.65,-206.84 515.18,-196.82 501.25,-187.79"/>
<polygon fill="grey" stroke="grey" stroke-width="2" points="502.78,-184.31 492.48,-181.81 498.97,-190.19 502.78,-184.31"/>
</g>
<!-- 5 -->
<g id="node6" class="node">
<title>5</title>
<path fill="none" stroke="#56d85b" stroke-width="2" d="M442.25,-324C442.25,-324 253.75,-324 253.75,-324 247.75,-324 241.75,-318 241.75,-312 241.75,-312 241.75,-300 241.75,-300 241.75,-294 247.75,-288 253.75,-288 253.75,-288 442.25,-288 442.25,-288 448.25,-288 454.25,-294 454.25,-300 454.25,-300 454.25,-312 454.25,-312 454.25,-318 448.25,-324 442.25,-324"/>
<text text-anchor="middle" x="348" y="-302.88" font-family="sans" font-size="10.00">main_04_GenerateCDSinGenomeCoords</text>
</g>
<!-- 5&#45;&gt;3 -->
<g id="edge5" class="edge">
<title>5&#45;&gt;3</title>
<path fill="none" stroke="grey" stroke-width="2" d="M351.79,-287.34C353.21,-280.67 354.88,-272.89 356.49,-265.39"/>
<polygon fill="grey" stroke="grey" stroke-width="2" points="360.49,-265.41 359.16,-254.9 353.65,-263.95 360.49,-265.41"/>
</g>
<!-- 6 -->
<g id="node7" class="node">
<title>6</title>
<path fill="none" stroke="#56d85b" stroke-width="2" d="M819.25,-324C819.25,-324 630.75,-324 630.75,-324 624.75,-324 618.75,-318 618.75,-312 618.75,-312 618.75,-300 618.75,-300 618.75,-294 624.75,-288 630.75,-288 630.75,-288 819.25,-288 819.25,-288 825.25,-288 831.25,-294 831.25,-300 831.25,-300 831.25,-312 831.25,-312 831.25,-318 825.25,-324 819.25,-324"/>
<text text-anchor="middle" x="725" y="-302.88" font-family="sans" font-size="10.00">main_04_GenerateCDSinGenomeCoords</text>
</g>
<!-- 6&#45;&gt;4 -->
<g id="edge6" class="edge">
<title>6&#45;&gt;4</title>
<path fill="none" stroke="grey" stroke-width="2" d="M685.74,-287.15C666.45,-278.38 642.95,-267.71 622.26,-258.3"/>
<polygon fill="grey" stroke="grey" stroke-width="2" points="623.01,-254.89 612.45,-253.93 620.11,-261.26 623.01,-254.89"/>
</g>
<!-- 7 -->
<g id="node8" class="node">
<title>7</title>
<path fill="none" stroke="#56d87b" stroke-width="2" d="M534.12,-468C534.12,-468 383.88,-468 383.88,-468 377.88,-468 371.88,-462 371.88,-456 371.88,-456 371.88,-444 371.88,-444 371.88,-438 377.88,-432 383.88,-432 383.88,-432 534.12,-432 534.12,-432 540.12,-432 546.12,-438 546.12,-444 546.12,-444 546.12,-456 546.12,-456 546.12,-462 540.12,-468 534.12,-468"/>
<text text-anchor="middle" x="459" y="-446.88" font-family="sans" font-size="10.00">main_01a_GTFtoAlignmentGFF3</text>
</g>
<!-- 7&#45;&gt;5 -->
<g id="edge7" class="edge">
<title>7&#45;&gt;5</title>
<path fill="none" stroke="grey" stroke-width="2" d="M444.94,-431.02C426.01,-406.8 392.13,-363.45 369.86,-334.96"/>
<polygon fill="grey" stroke="grey" stroke-width="2" points="371.86,-332.56 362.94,-326.84 366.35,-336.87 371.86,-332.56"/>
</g>
<!-- 8 -->
<g id="node9" class="node">
<title>8</title>
<path fill="none" stroke="#a7d856" stroke-width="2" d="M206.5,-612C206.5,-612 55.5,-612 55.5,-612 49.5,-612 43.5,-606 43.5,-600 43.5,-600 43.5,-588 43.5,-588 43.5,-582 49.5,-576 55.5,-576 55.5,-576 206.5,-576 206.5,-576 212.5,-576 218.5,-582 218.5,-588 218.5,-588 218.5,-600 218.5,-600 218.5,-606 212.5,-612 206.5,-612"/>
<text text-anchor="middle" x="131" y="-597.25" font-family="sans" font-size="10.00">main_01_ExtractCdnaSequences</text>
<text text-anchor="middle" x="131" y="-584.5" font-family="sans" font-size="10.00">track: transcriptome</text>
</g>
<!-- 8&#45;&gt;5 -->
<g id="edge8" class="edge">
<title>8&#45;&gt;5</title>
<path fill="none" stroke="grey" stroke-width="2" d="M104.47,-575.01C93.47,-565.94 81.91,-553.91 76,-540 56.9,-495.07 33.46,-422.85 90,-360 108.98,-338.9 170.22,-325.8 228.28,-317.9"/>
<polygon fill="grey" stroke="grey" stroke-width="2" points="228.52,-321.01 237.99,-316.25 227.62,-314.07 228.52,-321.01"/>
</g>
<!-- 8&#45;&gt;7 -->
<g id="edge13" class="edge">
<title>8&#45;&gt;7</title>
<path fill="none" stroke="grey" stroke-width="2" d="M207.85,-575.01C240.34,-566.22 278.19,-554.41 311,-540 351.41,-522.25 394.28,-495.49 423.42,-475.95"/>
<polygon fill="grey" stroke="grey" stroke-width="2" points="425.57,-478.36 431.88,-469.84 421.64,-472.56 425.57,-478.36"/>
</g>
<!-- 9 -->
<g id="node10" class="node">
<title>9</title>
<path fill="none" stroke="#d88556" stroke-width="2" d="M282.62,-396C282.62,-396 111.38,-396 111.38,-396 105.38,-396 99.38,-390 99.38,-384 99.38,-384 99.38,-372 99.38,-372 99.38,-366 105.38,-360 111.38,-360 111.38,-360 282.62,-360 282.62,-360 288.62,-360 294.62,-366 294.62,-372 294.62,-372 294.62,-384 294.62,-384 294.62,-390 288.62,-396 282.62,-396"/>
<text text-anchor="middle" x="197" y="-374.88" font-family="sans" font-size="10.00">main_03_ORF_PredictCodingRegions</text>
</g>
<!-- 8&#45;&gt;9 -->
<g id="edge16" class="edge">
<title>8&#45;&gt;9</title>
<path fill="none" stroke="grey" stroke-width="2" d="M108.53,-575.08C98.7,-565.79 88.22,-553.55 83,-540 77.24,-525.07 79.96,-519.71 83,-504 89.56,-470.13 89.83,-458.43 112,-432 121.42,-420.77 133.86,-411.19 146.3,-403.39"/>
<polygon fill="grey" stroke="grey" stroke-width="2" points="148.32,-406.08 155.16,-397.99 144.77,-400.05 148.32,-406.08"/>
</g>
<!-- 14 -->
<g id="node15" class="node">
<title>14</title>
<path fill="none" stroke="#56d0d8" stroke-width="2" d="M289.75,-540C289.75,-540 104.25,-540 104.25,-540 98.25,-540 92.25,-534 92.25,-528 92.25,-528 92.25,-516 92.25,-516 92.25,-510 98.25,-504 104.25,-504 104.25,-504 289.75,-504 289.75,-504 295.75,-504 301.75,-510 301.75,-516 301.75,-516 301.75,-528 301.75,-528 301.75,-534 295.75,-540 289.75,-540"/>
<text text-anchor="middle" x="197" y="-518.88" font-family="sans" font-size="10.00">main_02_ORF_CalculateCandidateORFs</text>
</g>
<!-- 8&#45;&gt;14 -->
<g id="edge24" class="edge">
<title>8&#45;&gt;14</title>
<path fill="none" stroke="grey" stroke-width="2" d="M147.65,-575.34C154.79,-567.77 163.29,-558.75 171.21,-550.35"/>
<polygon fill="grey" stroke="grey" stroke-width="2" points="173.81,-552.58 178.12,-542.9 168.71,-547.78 173.81,-552.58"/>
</g>
<!-- 9&#45;&gt;5 -->
<g id="edge9" class="edge">
<title>9&#45;&gt;5</title>
<path fill="none" stroke="grey" stroke-width="2" d="M235.49,-359.15C254.41,-350.38 277.45,-339.71 297.74,-330.3"/>
<polygon fill="grey" stroke="grey" stroke-width="2" points="299.71,-333.32 307.31,-325.93 296.77,-326.96 299.71,-333.32"/>
</g>
<!-- 10 -->
<g id="node11" class="node">
<title>10</title>
<path fill="none" stroke="#56d87b" stroke-width="2" d="M960.12,-396C960.12,-396 809.88,-396 809.88,-396 803.88,-396 797.88,-390 797.88,-384 797.88,-384 797.88,-372 797.88,-372 797.88,-366 803.88,-360 809.88,-360 809.88,-360 960.12,-360 960.12,-360 966.12,-360 972.12,-366 972.12,-372 972.12,-372 972.12,-384 972.12,-384 972.12,-390 966.12,-396 960.12,-396"/>
<text text-anchor="middle" x="885" y="-374.88" font-family="sans" font-size="10.00">main_01a_GTFtoAlignmentGFF3</text>
</g>
<!-- 10&#45;&gt;6 -->
<g id="edge10" class="edge">
<title>10&#45;&gt;6</title>
<path fill="none" stroke="grey" stroke-width="2" d="M844.21,-359.15C823.98,-350.3 799.3,-339.51 777.66,-330.04"/>
<polygon fill="grey" stroke="grey" stroke-width="2" points="778.56,-326.74 767.99,-325.93 775.75,-333.15 778.56,-326.74"/>
</g>
<!-- 11 -->
<g id="node12" class="node">
<title>11</title>
<path fill="none" stroke="#a7d856" stroke-width="2" d="M948.5,-612C948.5,-612 797.5,-612 797.5,-612 791.5,-612 785.5,-606 785.5,-600 785.5,-600 785.5,-588 785.5,-588 785.5,-582 791.5,-576 797.5,-576 797.5,-576 948.5,-576 948.5,-576 954.5,-576 960.5,-582 960.5,-588 960.5,-588 960.5,-600 960.5,-600 960.5,-606 954.5,-612 948.5,-612"/>
<text text-anchor="middle" x="873" y="-597.25" font-family="sans" font-size="10.00">main_01_ExtractCdnaSequences</text>
<text text-anchor="middle" x="873" y="-584.5" font-family="sans" font-size="10.00">track: transcriptome</text>
</g>
<!-- 11&#45;&gt;6 -->
<g id="edge11" class="edge">
<title>11&#45;&gt;6</title>
<path fill="none" stroke="grey" stroke-width="2" d="M893.31,-575.29C938.24,-534.02 1037.72,-429.67 981,-360 963.21,-338.15 902.48,-325.03 844.63,-317.31"/>
<polygon fill="grey" stroke="grey" stroke-width="2" points="845.32,-313.49 834.96,-315.7 844.44,-320.43 845.32,-313.49"/>
</g>
<!-- 11&#45;&gt;10 -->
<g id="edge18" class="edge">
<title>11&#45;&gt;10</title>
<path fill="none" stroke="grey" stroke-width="2" d="M874,-575.12C876.05,-538.62 880.73,-455.13 883.28,-409.74"/>
<polygon fill="grey" stroke="grey" stroke-width="2" points="886.93,-410.16 883.99,-399.98 879.94,-409.77 886.93,-410.16"/>
</g>
<!-- 12 -->
<g id="node13" class="node">
<title>12</title>
<path fill="none" stroke="#d88556" stroke-width="2" d="M767.62,-396C767.62,-396 596.38,-396 596.38,-396 590.38,-396 584.38,-390 584.38,-384 584.38,-384 584.38,-372 584.38,-372 584.38,-366 590.38,-360 596.38,-360 596.38,-360 767.62,-360 767.62,-360 773.62,-360 779.62,-366 779.62,-372 779.62,-372 779.62,-384 779.62,-384 779.62,-390 773.62,-396 767.62,-396"/>
<text text-anchor="middle" x="682" y="-374.88" font-family="sans" font-size="10.00">main_03_ORF_PredictCodingRegions</text>
</g>
<!-- 11&#45;&gt;12 -->
<g id="edge21" class="edge">
<title>11&#45;&gt;12</title>
<path fill="none" stroke="grey" stroke-width="2" d="M871.18,-575.03C866.95,-542.35 853.59,-472.81 814,-432 801.5,-419.11 785.45,-409.27 768.87,-401.78"/>
<polygon fill="grey" stroke="grey" stroke-width="2" points="769.93,-398.59 759.35,-397.96 767.23,-405.05 769.93,-398.59"/>
</g>
<!-- 17 -->
<g id="node18" class="node">
<title>17</title>
<path fill="none" stroke="#56d0d8" stroke-width="2" d="M813.75,-540C813.75,-540 628.25,-540 628.25,-540 622.25,-540 616.25,-534 616.25,-528 616.25,-528 616.25,-516 616.25,-516 616.25,-510 622.25,-504 628.25,-504 628.25,-504 813.75,-504 813.75,-504 819.75,-504 825.75,-510 825.75,-516 825.75,-516 825.75,-528 825.75,-528 825.75,-534 819.75,-540 813.75,-540"/>
<text text-anchor="middle" x="721" y="-518.88" font-family="sans" font-size="10.00">main_02_ORF_CalculateCandidateORFs</text>
</g>
<!-- 11&#45;&gt;17 -->
<g id="edge28" class="edge">
<title>11&#45;&gt;17</title>
<path fill="none" stroke="grey" stroke-width="2" d="M834.25,-575.15C815.21,-566.38 792.02,-555.71 771.6,-546.3"/>
<polygon fill="grey" stroke="grey" stroke-width="2" points="772.49,-542.94 761.94,-541.93 769.56,-549.3 772.49,-542.94"/>
</g>
<!-- 12&#45;&gt;6 -->
<g id="edge12" class="edge">
<title>12&#45;&gt;6</title>
<path fill="none" stroke="grey" stroke-width="2" d="M692.85,-359.34C697.25,-352.18 702.44,-343.73 707.35,-335.73"/>
<polygon fill="grey" stroke="grey" stroke-width="2" points="710.75,-337.25 713,-326.9 704.79,-333.59 710.75,-337.25"/>
</g>
<!-- 13 -->
<g id="node14" class="node">
<title>13</title>
<path fill="none" stroke="#d6d856" stroke-width="2" d="M250,-684C250,-684 12,-684 12,-684 6,-684 0,-678 0,-672 0,-672 0,-660 0,-660 0,-654 6,-648 12,-648 12,-648 250,-648 250,-648 256,-648 262,-654 262,-660 262,-660 262,-672 262,-672 262,-678 256,-684 250,-684"/>
<text text-anchor="middle" x="131" y="-662.88" font-family="sans" font-size="10.00">RNA_07_trscrpt_MergeSampleWiseTranscriptomes</text>
</g>
<!-- 13&#45;&gt;8 -->
<g id="edge14" class="edge">
<title>13&#45;&gt;8</title>
<path fill="none" stroke="grey" stroke-width="2" d="M131,-647.34C131,-640.75 131,-633.08 131,-625.67"/>
<polygon fill="grey" stroke="grey" stroke-width="2" points="134.5,-625.9 131,-615.9 127.5,-625.9 134.5,-625.9"/>
</g>
<!-- 14&#45;&gt;9 -->
<g id="edge15" class="edge">
<title>14&#45;&gt;9</title>
<path fill="none" stroke="grey" stroke-width="2" d="M157.02,-503.06C143,-494.58 128.81,-482.97 121,-468 113.6,-453.81 113.6,-446.19 121,-432 126.8,-420.89 136.11,-411.63 146.26,-404.12"/>
<polygon fill="grey" stroke="grey" stroke-width="2" points="148.65,-406.4 155.02,-397.94 144.76,-400.58 148.65,-406.4"/>
</g>
<!-- 15 -->
<g id="node16" class="node">
<title>15</title>
<path fill="none" stroke="#5682d8" stroke-width="2" d="M342.25,-468C342.25,-468 141.75,-468 141.75,-468 135.75,-468 129.75,-462 129.75,-456 129.75,-456 129.75,-444 129.75,-444 129.75,-438 135.75,-432 141.75,-432 141.75,-432 342.25,-432 342.25,-432 348.25,-432 354.25,-438 354.25,-444 354.25,-444 354.25,-456 354.25,-456 354.25,-462 348.25,-468 342.25,-468"/>
<text text-anchor="middle" x="242" y="-446.88" font-family="sans" font-size="10.00">main_02b_ORF_BLASTpForHomologyScore</text>
</g>
<!-- 14&#45;&gt;15 -->
<g id="edge26" class="edge">
<title>14&#45;&gt;15</title>
<path fill="none" stroke="grey" stroke-width="2" d="M208.36,-503.34C212.96,-496.18 218.39,-487.73 223.53,-479.73"/>
<polygon fill="grey" stroke="grey" stroke-width="2" points="227.03,-481.21 229.49,-470.9 221.14,-477.42 227.03,-481.21"/>
</g>
<!-- 15&#45;&gt;9 -->
<g id="edge17" class="edge">
<title>15&#45;&gt;9</title>
<path fill="none" stroke="grey" stroke-width="2" d="M230.64,-431.34C226.04,-424.18 220.61,-415.73 215.47,-407.73"/>
<polygon fill="grey" stroke="grey" stroke-width="2" points="217.86,-405.42 209.51,-398.9 211.97,-409.21 217.86,-405.42"/>
</g>
<!-- 16 -->
<g id="node17" class="node">
<title>16</title>
<path fill="none" stroke="#d6d856" stroke-width="2" d="M992,-684C992,-684 754,-684 754,-684 748,-684 742,-678 742,-672 742,-672 742,-660 742,-660 742,-654 748,-648 754,-648 754,-648 992,-648 992,-648 998,-648 1004,-654 1004,-660 1004,-660 1004,-672 1004,-672 1004,-678 998,-684 992,-684"/>
<text text-anchor="middle" x="873" y="-662.88" font-family="sans" font-size="10.00">RNA_07_trscrpt_MergeSampleWiseTranscriptomes</text>
</g>
<!-- 16&#45;&gt;11 -->
<g id="edge19" class="edge">
<title>16&#45;&gt;11</title>
<path fill="none" stroke="grey" stroke-width="2" d="M873,-647.34C873,-640.75 873,-633.08 873,-625.67"/>
<polygon fill="grey" stroke="grey" stroke-width="2" points="876.5,-625.9 873,-615.9 869.5,-625.9 876.5,-625.9"/>
</g>
<!-- 17&#45;&gt;12 -->
<g id="edge20" class="edge">
<title>17&#45;&gt;12</title>
<path fill="none" stroke="grey" stroke-width="2" d="M760.98,-503.06C775,-494.58 789.19,-482.97 797,-468 804.4,-453.81 805.63,-445.47 797,-432 789.07,-419.61 777.43,-410.08 764.56,-402.76"/>
<polygon fill="grey" stroke="grey" stroke-width="2" points="765.5,-399.29 755,-397.87 762.32,-405.53 765.5,-399.29"/>
</g>
<!-- 18 -->
<g id="node19" class="node">
<title>18</title>
<path fill="none" stroke="#5682d8" stroke-width="2" d="M776.25,-468C776.25,-468 575.75,-468 575.75,-468 569.75,-468 563.75,-462 563.75,-456 563.75,-456 563.75,-444 563.75,-444 563.75,-438 569.75,-432 575.75,-432 575.75,-432 776.25,-432 776.25,-432 782.25,-432 788.25,-438 788.25,-444 788.25,-444 788.25,-456 788.25,-456 788.25,-462 782.25,-468 776.25,-468"/>
<text text-anchor="middle" x="676" y="-446.88" font-family="sans" font-size="10.00">main_02b_ORF_BLASTpForHomologyScore</text>
</g>
<!-- 17&#45;&gt;18 -->
<g id="edge30" class="edge">
<title>17&#45;&gt;18</title>
<path fill="none" stroke="grey" stroke-width="2" d="M709.64,-503.34C705.04,-496.18 699.61,-487.73 694.47,-479.73"/>
<polygon fill="grey" stroke="grey" stroke-width="2" points="696.86,-477.42 688.51,-470.9 690.97,-481.21 696.86,-477.42"/>
</g>
<!-- 18&#45;&gt;12 -->
<g id="edge22" class="edge">
<title>18&#45;&gt;12</title>
<path fill="none" stroke="grey" stroke-width="2" d="M677.51,-431.34C678.08,-424.75 678.74,-417.08 679.37,-409.67"/>
<polygon fill="grey" stroke="grey" stroke-width="2" points="683.1,-410.16 680.47,-399.9 676.12,-409.57 683.1,-410.16"/>
</g>
<!-- 19 -->
<g id="node20" class="node">
<title>19</title>
<path fill="none" stroke="#97d856" stroke-width="2" d="M243.25,-756C243.25,-756 18.75,-756 18.75,-756 12.75,-756 6.75,-750 6.75,-744 6.75,-744 6.75,-732 6.75,-732 6.75,-726 12.75,-720 18.75,-720 18.75,-720 243.25,-720 243.25,-720 249.25,-720 255.25,-726 255.25,-732 255.25,-732 255.25,-744 255.25,-744 255.25,-750 249.25,-756 243.25,-756"/>
<text text-anchor="middle" x="131" y="-734.88" font-family="sans" font-size="10.00">RNA_04_trscrpt_AssembleWithStringTie_guided</text>
</g>
<!-- 19&#45;&gt;13 -->
<g id="edge23" class="edge">
<title>19&#45;&gt;13</title>
<path fill="none" stroke="grey" stroke-width="2" d="M131,-719.34C131,-712.75 131,-705.08 131,-697.67"/>
<polygon fill="grey" stroke="grey" stroke-width="2" points="134.5,-697.9 131,-687.9 127.5,-697.9 134.5,-697.9"/>
</g>
<!-- 20 -->
<g id="node21" class="node">
<title>20</title>
<path fill="none" stroke="#56d86b" stroke-width="2" d="M566,-540C566,-540 430,-540 430,-540 424,-540 418,-534 418,-528 418,-528 418,-516 418,-516 418,-510 424,-504 430,-504 430,-504 566,-504 566,-504 572,-504 578,-510 578,-516 578,-516 578,-528 578,-528 578,-534 572,-540 566,-540"/>
<text text-anchor="middle" x="498" y="-518.88" font-family="sans" font-size="10.00">main_02a_ORF_MakeBlastDB</text>
</g>
<!-- 20&#45;&gt;15 -->
<g id="edge25" class="edge">
<title>20&#45;&gt;15</title>
<path fill="none" stroke="grey" stroke-width="2" d="M432.41,-503.06C398.08,-493.68 355.84,-482.13 319.86,-472.29"/>
<polygon fill="grey" stroke="grey" stroke-width="2" points="319.99,-468.15 309.42,-468.89 318.15,-474.9 319.99,-468.15"/>
</g>
<!-- 20&#45;&gt;18 -->
<g id="edge29" class="edge">
<title>20&#45;&gt;18</title>
<path fill="none" stroke="grey" stroke-width="2" d="M543.38,-503.15C566.2,-494.18 594.11,-483.21 618.42,-473.64"/>
<polygon fill="grey" stroke="grey" stroke-width="2" points="620.37,-476.85 628.4,-469.93 617.81,-470.34 620.37,-476.85"/>
</g>
<!-- 21 -->
<g id="node22" class="node">
<title>21</title>
<path fill="none" stroke="#97d856" stroke-width="2" d="M985.25,-756C985.25,-756 760.75,-756 760.75,-756 754.75,-756 748.75,-750 748.75,-744 748.75,-744 748.75,-732 748.75,-732 748.75,-726 754.75,-720 760.75,-720 760.75,-720 985.25,-720 985.25,-720 991.25,-720 997.25,-726 997.25,-732 997.25,-732 997.25,-744 997.25,-744 997.25,-750 991.25,-756 985.25,-756"/>
<text text-anchor="middle" x="873" y="-734.88" font-family="sans" font-size="10.00">RNA_04_trscrpt_AssembleWithStringTie_guided</text>
</g>
<!-- 21&#45;&gt;16 -->
<g id="edge27" class="edge">
<title>21&#45;&gt;16</title>
<path fill="none" stroke="grey" stroke-width="2" d="M873,-719.34C873,-712.75 873,-705.08 873,-697.67"/>
<polygon fill="grey" stroke="grey" stroke-width="2" points="876.5,-697.9 873,-687.9 869.5,-697.9 876.5,-697.9"/>
</g>
<!-- 22 -->
<g id="node23" class="node">
<title>22</title>
<path fill="none" stroke="#56b1d8" stroke-width="2" d="M204.5,-900C204.5,-900 59.5,-900 59.5,-900 53.5,-900 47.5,-894 47.5,-888 47.5,-888 47.5,-876 47.5,-876 47.5,-870 53.5,-864 59.5,-864 59.5,-864 204.5,-864 204.5,-864 210.5,-864 216.5,-870 216.5,-876 216.5,-876 216.5,-888 216.5,-888 216.5,-894 210.5,-900 204.5,-900"/>
<text text-anchor="middle" x="132" y="-878.88" font-family="sans" font-size="10.00">RNA_02_FilterLowQualityReads</text>
</g>
<!-- 22&#45;&gt;19 -->
<g id="edge31" class="edge">
<title>22&#45;&gt;19</title>
<path fill="none" stroke="grey" stroke-width="2" d="M116.01,-863.3C108.35,-853.62 99.99,-840.97 96,-828 91.3,-812.71 91.4,-807.32 96,-792 98.6,-783.34 103.12,-774.8 108.07,-767.18"/>
<polygon fill="grey" stroke="grey" stroke-width="2" points="111.52,-768.95 114.45,-758.77 105.81,-764.9 111.52,-768.95"/>
</g>
<!-- 23 -->
<g id="node24" class="node">
<title>23</title>
<path fill="none" stroke="#56a2d8" stroke-width="2" d="M254.75,-828C254.75,-828 117.25,-828 117.25,-828 111.25,-828 105.25,-822 105.25,-816 105.25,-816 105.25,-804 105.25,-804 105.25,-798 111.25,-792 117.25,-792 117.25,-792 254.75,-792 254.75,-792 260.75,-792 266.75,-798 266.75,-804 266.75,-804 266.75,-816 266.75,-816 266.75,-822 260.75,-828 254.75,-828"/>
<text text-anchor="middle" x="186" y="-806.88" font-family="sans" font-size="10.00">RNA_03_IndexBAMPerSample</text>
</g>
<!-- 22&#45;&gt;23 -->
<g id="edge36" class="edge">
<title>22&#45;&gt;23</title>
<path fill="none" stroke="grey" stroke-width="2" d="M145.63,-863.34C151.27,-856.01 157.97,-847.34 164.26,-839.18"/>
<polygon fill="grey" stroke="grey" stroke-width="2" points="167.85,-840.96 171.19,-830.9 162.31,-836.68 167.85,-840.96"/>
</g>
<!-- 23&#45;&gt;19 -->
<g id="edge32" class="edge">
<title>23&#45;&gt;19</title>
<path fill="none" stroke="grey" stroke-width="2" d="M172.12,-791.34C166.3,-783.93 159.4,-775.14 152.92,-766.9"/>
<polygon fill="grey" stroke="grey" stroke-width="2" points="155,-764.6 146.07,-758.9 149.49,-768.93 155,-764.6"/>
</g>
<!-- 24 -->
<g id="node25" class="node">
<title>24</title>
<path fill="none" stroke="#56b1d8" stroke-width="2" d="M944.5,-900C944.5,-900 799.5,-900 799.5,-900 793.5,-900 787.5,-894 787.5,-888 787.5,-888 787.5,-876 787.5,-876 787.5,-870 793.5,-864 799.5,-864 799.5,-864 944.5,-864 944.5,-864 950.5,-864 956.5,-870 956.5,-876 956.5,-876 956.5,-888 956.5,-888 956.5,-894 950.5,-900 944.5,-900"/>
<text text-anchor="middle" x="872" y="-878.88" font-family="sans" font-size="10.00">RNA_02_FilterLowQualityReads</text>
</g>
<!-- 24&#45;&gt;21 -->
<g id="edge33" class="edge">
<title>24&#45;&gt;21</title>
<path fill="none" stroke="grey" stroke-width="2" d="M856.45,-863.23C849,-853.52 840.87,-840.88 837,-828 832.4,-812.68 832.3,-807.29 837,-792 839.68,-783.29 844.33,-774.72 849.42,-767.1"/>
<polygon fill="grey" stroke="grey" stroke-width="2" points="852.94,-768.84 856.01,-758.7 847.29,-764.71 852.94,-768.84"/>
</g>
<!-- 25 -->
<g id="node26" class="node">
<title>25</title>
<path fill="none" stroke="#56a2d8" stroke-width="2" d="M995.75,-828C995.75,-828 858.25,-828 858.25,-828 852.25,-828 846.25,-822 846.25,-816 846.25,-816 846.25,-804 846.25,-804 846.25,-798 852.25,-792 858.25,-792 858.25,-792 995.75,-792 995.75,-792 1001.75,-792 1007.75,-798 1007.75,-804 1007.75,-804 1007.75,-816 1007.75,-816 1007.75,-822 1001.75,-828 995.75,-828"/>
<text text-anchor="middle" x="927" y="-806.88" font-family="sans" font-size="10.00">RNA_03_IndexBAMPerSample</text>
</g>
<!-- 24&#45;&gt;25 -->
<g id="edge38" class="edge">
<title>24&#45;&gt;25</title>
<path fill="none" stroke="grey" stroke-width="2" d="M885.88,-863.34C891.7,-855.93 898.6,-847.14 905.08,-838.9"/>
<polygon fill="grey" stroke="grey" stroke-width="2" points="908.51,-840.93 911.93,-830.9 903,-836.6 908.51,-840.93"/>
</g>
<!-- 25&#45;&gt;21 -->
<g id="edge34" class="edge">
<title>25&#45;&gt;21</title>
<path fill="none" stroke="grey" stroke-width="2" d="M913.37,-791.34C907.73,-784.01 901.03,-775.34 894.74,-767.18"/>
<polygon fill="grey" stroke="grey" stroke-width="2" points="896.69,-764.68 887.81,-758.9 891.15,-768.96 896.69,-764.68"/>
</g>
<!-- 26 -->
<g id="node27" class="node">
<title>26</title>
<path fill="none" stroke="#c6d856" stroke-width="2" d="M216.12,-972C216.12,-972 47.88,-972 47.88,-972 41.88,-972 35.88,-966 35.88,-960 35.88,-960 35.88,-948 35.88,-948 35.88,-942 41.88,-936 47.88,-936 47.88,-936 216.12,-936 216.12,-936 222.12,-936 228.12,-942 228.12,-948 228.12,-948 228.12,-960 228.12,-960 228.12,-966 222.12,-972 216.12,-972"/>
<text text-anchor="middle" x="132" y="-957.25" font-family="sans" font-size="10.00">RNA_01_STAR_AlignRNAReadsByRG</text>
<text text-anchor="middle" x="132" y="-944.5" font-family="sans" font-size="10.00">sample: ST&#45;KASUMI1</text>
</g>
<!-- 26&#45;&gt;22 -->
<g id="edge35" class="edge">
<title>26&#45;&gt;22</title>
<path fill="none" stroke="grey" stroke-width="2" d="M132,-935.34C132,-928.75 132,-921.08 132,-913.67"/>
<polygon fill="grey" stroke="grey" stroke-width="2" points="135.5,-913.9 132,-903.9 128.5,-913.9 135.5,-913.9"/>
</g>
<!-- 27 -->
<g id="node28" class="node">
<title>27</title>
<path fill="none" stroke="#c6d856" stroke-width="2" d="M956.12,-972C956.12,-972 787.88,-972 787.88,-972 781.88,-972 775.88,-966 775.88,-960 775.88,-960 775.88,-948 775.88,-948 775.88,-942 781.88,-936 787.88,-936 787.88,-936 956.12,-936 956.12,-936 962.12,-936 968.12,-942 968.12,-948 968.12,-948 968.12,-960 968.12,-960 968.12,-966 962.12,-972 956.12,-972"/>
<text text-anchor="middle" x="872" y="-957.25" font-family="sans" font-size="10.00">RNA_01_STAR_AlignRNAReadsByRG</text>
<text text-anchor="middle" x="872" y="-944.5" font-family="sans" font-size="10.00">sample: ST&#45;KASUMI1</text>
</g>
<!-- 27&#45;&gt;24 -->
<g id="edge37" class="edge">
<title>27&#45;&gt;24</title>
<path fill="none" stroke="grey" stroke-width="2" d="M872,-935.34C872,-928.75 872,-921.08 872,-913.67"/>
<polygon fill="grey" stroke="grey" stroke-width="2" points="875.5,-913.9 872,-903.9 868.5,-913.9 875.5,-913.9"/>
</g>
<!-- 28 -->
<g id="node29" class="node">
<title>28</title>
<path fill="none" stroke="#d87556" stroke-width="2" d="M215,-1054.25C215,-1054.25 49,-1054.25 49,-1054.25 43,-1054.25 37,-1048.25 37,-1042.25 37,-1042.25 37,-1020 37,-1020 37,-1014 43,-1008 49,-1008 49,-1008 215,-1008 215,-1008 221,-1008 227,-1014 227,-1020 227,-1020 227,-1042.25 227,-1042.25 227,-1048.25 221,-1054.25 215,-1054.25"/>
<text text-anchor="middle" x="132" y="-1040.75" font-family="sans" font-size="10.00">RNA_00_STAR_CreateGenomeIndex</text>
<text text-anchor="middle" x="132" y="-1028" font-family="sans" font-size="10.00">htype: 1</text>
<text text-anchor="middle" x="132" y="-1015.25" font-family="sans" font-size="10.00">study_group: experiment</text>
</g>
<!-- 28&#45;&gt;26 -->
<g id="edge39" class="edge">
<title>28&#45;&gt;26</title>
<path fill="none" stroke="grey" stroke-width="2" d="M132,-1007.18C132,-1000.36 132,-992.78 132,-985.56"/>
<polygon fill="grey" stroke="grey" stroke-width="2" points="135.5,-985.8 132,-975.8 128.5,-985.8 135.5,-985.8"/>
</g>
<!-- 29 -->
<g id="node30" class="node">
<title>29</title>
<path fill="none" stroke="#d87556" stroke-width="2" d="M955,-1054.25C955,-1054.25 789,-1054.25 789,-1054.25 783,-1054.25 777,-1048.25 777,-1042.25 777,-1042.25 777,-1020 777,-1020 777,-1014 783,-1008 789,-1008 789,-1008 955,-1008 955,-1008 961,-1008 967,-1014 967,-1020 967,-1020 967,-1042.25 967,-1042.25 967,-1048.25 961,-1054.25 955,-1054.25"/>
<text text-anchor="middle" x="872" y="-1040.75" font-family="sans" font-size="10.00">RNA_00_STAR_CreateGenomeIndex</text>
<text text-anchor="middle" x="872" y="-1028" font-family="sans" font-size="10.00">htype: 2</text>
<text text-anchor="middle" x="872" y="-1015.25" font-family="sans" font-size="10.00">study_group: experiment</text>
</g>
<!-- 29&#45;&gt;27 -->
<g id="edge40" class="edge">
<title>29&#45;&gt;27</title>
<path fill="none" stroke="grey" stroke-width="2" d="M872,-1007.18C872,-1000.36 872,-992.78 872,-985.56"/>
<polygon fill="grey" stroke="grey" stroke-width="2" points="875.5,-985.8 872,-975.8 868.5,-985.8 875.5,-985.8"/>
</g>
</g>
</svg>
